<?xml version="1.0" encoding="UTF-8" standalone="no"?>
<svg
   xmlns:sketch="http://www.bohemiancoding.com/sketch/ns"
   xmlns:dc="http://purl.org/dc/elements/1.1/"
   xmlns:cc="http://creativecommons.org/ns#"
   xmlns:rdf="http://www.w3.org/1999/02/22-rdf-syntax-ns#"
   xmlns:svg="http://www.w3.org/2000/svg"
   xmlns="http://www.w3.org/2000/svg"
   xmlns:sodipodi="http://sodipodi.sourceforge.net/DTD/sodipodi-0.dtd"
   xmlns:inkscape="http://www.inkscape.org/namespaces/inkscape"
   width="221px"
   height="464px"
   viewBox="0 0 221 464"
   version="1.1"
   id="svg871"
   sodipodi:docname="mobile-preview.svg"
   inkscape:version="0.92.3 (2405546, 2018-03-11)">
  <metadata
     id="metadata875">
    <rdf:RDF>
      <cc:Work
         rdf:about="">
        <dc:format>image/svg+xml</dc:format>
        <dc:type
           rdf:resource="http://purl.org/dc/dcmitype/StillImage" />
        <dc:title>apple-iphone-5s</dc:title>
      </cc:Work>
    </rdf:RDF>
  </metadata>
  <sodipodi:namedview
     pagecolor="#ffffff"
     bordercolor="#666666"
     borderopacity="1"
     objecttolerance="10"
     gridtolerance="10"
     guidetolerance="10"
     inkscape:pageopacity="0"
     inkscape:pageshadow="2"
     inkscape:window-width="1920"
     inkscape:window-height="1012"
     id="namedview873"
     showgrid="false"
     showguides="true"
     inkscape:guide-bbox="true"
     inkscape:zoom="1.7521552"
     inkscape:cx="19.183887"
     inkscape:cy="204.04493"
     inkscape:window-x="0"
     inkscape:window-y="32"
     inkscape:window-maximized="1"
     inkscape:current-layer="svg871" />
  <title
     id="title865">apple-iphone-5s</title>
  <description>Created with Sketch (http://www.bohemiancoding.com/sketch)</description>
  <defs
     id="defs867" />
  <g
     id="Page-1"
     stroke="none"
     stroke-width="1"
     fill="none"
     fill-rule="evenodd"
     sketch:type="MSPage"
     style="fill:#4d4d4d"
     inkscape:export-filename="/home/fajfa/Desktop/KENDU/Crust/webapp-messaging/src/assets/images/mobile-preview.svg.png"
     inkscape:export-xdpi="193.52"
     inkscape:export-ydpi="193.52">
    <path
       d="M3,164 L0,164 L0,147 L3,147 L3,126 L0,126 L0,109 L3,109 L3,87 L0,87 L0,66 L3,66 L3,34.0058827 C3,16.3333538 17.3228613,2 34.9910061,2 L149,2 L149,0 L185,0 L185,2 L189.008994,2 C206.675354,2 221,16.3295218 221,34.0058827 L221,431.994117 C221,449.666646 206.677139,464 189.008994,464 L34.9910061,464 C17.3246455,464 3,449.670478 3,431.994117 L3,164 Z M94.0088498,40 C93.4516774,40 93,40.4433532 93,41.0093689 L93,42.9906311 C93,43.5480902 93.4508527,44 93.9996148,44 L116.404905,44 L128.992078,44 C129.548738,44 130,43.5566468 130,42.9906311 L130,41.0093689 C130,40.4519098 129.558697,40 128.99115,40 L94.0088498,40 Z M111.5,29 C113.985281,29 116,26.9852815 116,24.5 C116,22.0147185 113.985281,20 111.5,20 C109.014719,20 107,22.0147185 107,24.5 C107,26.9852815 109.014719,29 111.5,29 Z M17.9944647,66 C16.8929523,66 16,66.9024743 16,68.0096543 L16,398.990346 C16,400.100247 16.8987528,401 17.9944647,401 L206.005535,401 C207.107048,401 208,400.097526 208,398.990346 L208,68.0096543 C208,66.8997529 207.101247,66 206.005535,66 L17.9944647,66 Z M112,450 C122.493411,450 131,441.493411 131,431 C131,420.506589 122.493411,412 112,412 C101.506589,412 93,420.506589 93,431 C93,441.493411 101.506589,450 112,450 Z M81,45 C82.6568543,45 84,43.6568543 84,42 C84,40.3431457 82.6568543,39 81,39 C79.3431457,39 78,40.3431457 78,42 C78,43.6568543 79.3431457,45 81,45 Z M112,448 C121.388841,448 129,440.388841 129,431 C129,421.611159 121.388841,414 112,414 C102.611159,414 95,421.611159 95,431 C95,440.388841 102.611159,448 112,448 Z"
       id="Apple-iPhone-5S"
       fill="#000000"
       sketch:type="MSShapeGroup"
       style="fill:#4d4d4d" />
  </g>
  <path
     style="fill:#2d2d2f;fill-opacity:1;stroke-width:0.57072568"
     d="M 26.14674,462.40894 C 20.6225,460.62086 16.832654,458.29184 12.677572,454.13155 8.2506942,449.69914 5.0939864,444.04536 3.943784,438.48901 3.4997329,436.3439 3.3177122,395.98149 3.3177122,299.65998 V 163.85535 H 1.8908979 0.46408364 v -8.27552 -8.27552 H 1.8908979 3.3177122 V 136.46052 125.61673 H 1.8908979 0.46408364 v -8.27552 -8.27553 H 1.8908979 3.3177122 V 97.936531 86.80738 H 1.8908979 0.46408364 V 76.534317 66.261255 H 1.8508577 3.2376319 L 3.437227,46.713899 C 3.6340195,27.441013 3.6569448,27.114334 5.0699411,23.448222 8.040351,15.741299 13.741509,9.2867968 20.624262,5.8385725 27.888035,2.1994588 25.0941,2.3399754 90.187929,2.3399754 c 58.855081,0 59.235561,-0.00733 59.235561,-1.1414514 0,-1.11690406 0.38049,-1.14145143 17.6925,-1.14145143 16.8496,0 17.6925,0.05042647 17.6925,1.05846023 0,0.9368354 0.63941,1.0947391 5.56457,1.3741826 12.00378,0.6810693 21.56433,6.8108239 26.78168,17.1711006 3.86726,7.679357 3.58865,-8.852843 3.59956,213.589094 0.01,199.49275 -0.005,202.14498 -1.11907,206.50256 -0.62094,2.42785 -1.83648,5.74347 -2.70119,7.36804 -2.15382,4.04648 -8.81223,10.57512 -13.05273,12.79835 -7.20745,3.77875 -1.77095,3.57063 -92.3883,3.53679 -77.219686,-0.0288 -82.397724,-0.0923 -85.34627,-1.04671 z m 93.42587,-13.7523 c 4.0893,-1.80889 7.194,-4.69626 9.30154,-8.65042 4.6512,-8.72652 2.05437,-19.17822 -6.18071,-24.87608 -9.45159,-6.53956 -23.107582,-2.86046 -28.021348,7.54932 -1.790206,3.79255 -2.2107,9.8409 -0.97525,14.02808 1.761608,5.97045 7.675078,11.58774 13.727148,13.03962 3.31814,0.79602 9.04615,0.28185 12.14862,-1.09052 z m 87.95076,-48.06427 c 0.99765,-0.99764 0.99765,-333.219325 0,-334.21697 -0.996,-0.996002 -189.968822,-0.996002 -190.964821,0 -0.997648,0.997645 -0.997648,333.21933 0,334.21697 0.995999,0.99601 189.968821,0.99601 190.964821,0 z M 83.600248,43.651824 c 0.875858,-1.336725 0.890269,-1.649599 0.138035,-2.99631 -1.002399,-1.794576 -3.911656,-2.346531 -5.062045,-0.960392 -0.935597,1.127323 -0.947982,3.478334 -0.0242,4.591436 1.17057,1.410446 3.831829,1.069071 4.948203,-0.634734 z m 46.418572,-1.646412 v -1.99754 H 111.47023 92.921648 v 1.99754 1.99754 h 18.548582 18.54859 z M 113.72757,28.80956 c 1.12305,-0.430956 2.59383,-3.141136 2.59383,-4.779608 0,-1.870269 -2.50011,-3.99748 -4.69823,-3.99748 -4.80148,0 -6.60191,5.458516 -2.77066,8.400054 0.98365,0.75522 3.40209,0.942262 4.87506,0.377034 z"
     id="path888"
     inkscape:connector-curvature="0"
     inkscape:export-filename="/home/fajfa/Desktop/KENDU/Crust/webapp-messaging/src/assets/images/mobile-preview.svg.png"
     inkscape:export-xdpi="193.52"
     inkscape:export-ydpi="193.52" />
  <path
     style="fill:#feca36;fill-opacity:1;stroke-width:0.57072568"
     d="m 105.14588,446.14451 c -10.461944,-4.87152 -13.08739,-17.77201 -5.341676,-26.24706 6.323066,-6.91845 16.336476,-7.42475 23.285086,-1.17735 7.29131,6.55552 7.4135,17.45354 0.27281,24.33158 -4.76587,4.59057 -12.26526,5.86385 -18.21622,3.09283 z"
     id="path890"
     inkscape:connector-curvature="0"
     inkscape:export-filename="/home/fajfa/Desktop/KENDU/Crust/webapp-messaging/src/assets/images/mobile-preview.svg.png"
     inkscape:export-xdpi="193.52"
     inkscape:export-ydpi="193.52" />
</svg>
